<svg xmlns="http://www.w3.org/2000/svg" fill="#00ca96" viewBox="0 0 100 100"><path d="m97.4997787 65.3275223-11.3672103 21.3701324s-2.4628906 4.2441864-12.6933746 4.8495789l-11.7461166.303627v4.7363358l-6.2519646-8.1464996-6.2519608-8.2978439 12.5039253-16.5956879v6.858429h21.7492599c0-.0008469 9.8143387.8330917 14.057663-5.0780029zm-10.2701568-24.3780785-14.1261902 8.1872635c-1.2356339.7161446-1.6533585 2.3004951-.9314499 3.5327644l8.1256409 13.8701172c9.4726639.8711472 12.3525772-2.0459137 12.3525772-2.0459137 7.5781403-4.2812195 3.3720474-13.7919998 3.3720474-13.7919998l-5.2880096-8.8448753c-.7234421-1.2100449-2.2848587-1.6142998-3.5046158-.9073563zm-71.8753395 43.6633568c-2.8799076-6.707077 2.9180164-14.6641235 2.9180164-14.6641235l11.3672028-18.6045418 5.8349514 3.5615082-7.5781384-19.3242493-20.687664 2.1212082 4.0547376 2.4628944-5.7604666 10.0046578c-4.7744436 9.0937652-2.4247885 13.3749809-2.4247885 13.3749809zm3.2207069-3.2969208c-.2655792 8.714859 10.0410328 10.0029297 10.0410328 10.0029297l10.2293797.1817322c1.4233284.0252838 2.5976295-1.1081314 2.622776-2.5314636l.2879677-16.2991486c.0250969-1.4204788-1.1040001-2.5934067-2.5244064-2.6223907l-15.996626-.3264618c-5.6073875 7.6171112-4.6222286 11.6328735-4.6222286 11.6328735zm46.3782044-43.8016319 10.2685928 1.5536919 8.6386414-18.8691292-4.1679688 2.2353363-5.9111633-10.155138c-5.4179382-8.7148571-10.3067017-8.8662033-10.3067017-8.8662033h-24.2868423c7.2373352.909204 11.3672065 9.9277944 11.3672065 9.9277944l10.3437271 19.1347961-6.0244064 3.258812zm-16.8994637-20.3096218c-3.7890663-8.752965-7.5781364-9.9277916-7.5781364-9.9277916-7.3505783-4.6230965-13.7168617 3.5996151-13.7168617 3.5996151l-5.3977375 8.7648277c-.7444115 1.2087727-.3712234 2.7919254.834692 3.5409584l13.910965 8.6405544c1.2167053.7557354 2.8161926.374506 3.5612106-.8487892z"></path></svg>