<svg xmlns="http://www.w3.org/2000/svg" width="508" height="512" viewBox="0 0 508 512" fill="none"><g clip-path="url(#clip0_18_2)"><path d="M231.5 0.599994C189.4 4.59999 165.3 11 132.5 27C73.8001 55.6 28.5001 105 4.40011 166.5C-0.399893 178.8 -0.499893 180.6 3.30011 184.7C5.10011 186.7 6.30011 187 13.2001 187C20.3001 187 21.1001 187.2 20.6001 188.7C18.4001 195.9 14.7001 211.4 12.9001 221C10.8001 231.8 10.7001 236.2 10.3001 292.9C10.1001 326.1 10.1001 354.4 10.4001 355.6C11.5001 359.9 15.6001 361 30.8001 361H44.7001L45.2001 374.2C45.7001 389.3 47.1001 393.8 53.6001 400.9C56.7001 404.5 63.4001 409 65.5001 409C65.8001 409 66.0001 383.6 66.0001 352.5C66.0001 305.7 65.8001 296 64.7001 296C62.7001 296 55.9001 301.1 52.6001 305.1C47.0001 311.6 45.7001 316.3 45.2001 330.8L44.7001 344H35.4001H26.0001V302.7C26.1001 242.8 27.6001 225.8 35.2001 199L38.5001 187.5L50.0001 187C56.3001 186.7 62.1001 186.1 62.8001 185.6C63.6001 185.2 65.7001 181.5 67.5001 177.4C76.3001 158.1 91.5001 136.5 107.5 120.5C135.6 92.4 170 74.2 210.8 65.9C225.7 62.9 269.7 62 287 64.4C353.6 73.7 409.6 114.2 439 174.6C441.8 180.3 444.9 185.4 446 186C447 186.5 452.6 187 458.3 187H468.8L469.8 189.7C473.6 199.8 477.3 215.4 479.4 230.8C480.7 239.8 481 252.2 481 293V344H472.1H463.3L462.7 331.2C462.1 316.3 460.6 311.1 454.8 304.5C451.4 300.7 444.7 296 442.5 296C442.2 296 442 321.4 442 352.5C442 383.6 442.2 409 442.5 409C444.7 409 451.4 404.3 454.8 400.5C460.6 393.9 462.1 388.7 462.7 373.7L463.3 361H477.2C492.4 361 496.5 359.9 497.6 355.7C497.9 354.4 498 326.6 497.7 293.9C497.4 243.4 497.1 232.9 495.6 224.1C494.2 215.4 490.2 198.6 487.4 189.2C486.8 187 486.9 187 494.7 187C501.9 187 502.9 186.8 505 184.5C508.8 180.5 508 176.7 499.8 159.8C484.1 127.4 468 104.4 444 79.6C402.7 37 351 10.4 294 2.39999C284.1 0.999994 240.4 -0.300006 231.5 0.599994Z" fill="#00AA7E"></path><path d="M179 140.9C175.1 144.7 175.1 148.3 178.9 152.1L181.8 155H202.9H224V168.5V182H203.5C181.8 182 179 182.5 177.1 186.7C176.4 188.2 176 197.6 176 213C176 236.8 176 236.9 178.4 239.7L180.8 242.5L205.2 242.8C231.7 243.1 235.2 242.8 238.1 239.9C241.1 236.9 240.7 230.7 237.4 228.1C234.9 226.1 233.5 226 213.9 226H193V212.6V199.1L214.6 198.8C235.9 198.5 236.2 198.5 238.1 196.1C239.9 194 240 191.9 240 168.5C240 145.1 239.9 143 238.1 140.9L236.2 138.5L209.1 138.2L181.9 137.9L179 140.9Z" fill="#00AA7E"></path><path d="M272.5 139C267.6 140.9 267.5 141.6 267.5 170.1V196.8L269.9 199.4L272.3 202H293.7H315V219.4C315 236.4 315.1 237 317.4 239.6C320.4 243.2 326 243.5 329.3 240.2L331.5 237.9L331.8 190.9L332.1 143.9L329.1 141C325.3 137.1 321.7 137.1 317.9 140.9L315 143.8V164.9V186.1L299.8 185.8L284.5 185.5L284 163.5C283.6 151.4 283.3 141.4 283.2 141.3C283.1 141.2 281.7 140.4 280 139.5C276.8 137.8 275.5 137.7 272.5 139Z" fill="#00AA7E"></path><path d="M93 264.7C89.3 266.1 85.6 269.6 83.9 273.4C82.1 277.3 82 281.5 82 352.5C82 423.5 82.1 427.7 83.9 431.6C84.9 433.9 87.3 436.8 89.1 438.1C92.5 440.5 92.5 440.5 124.3 440.8L156.2 441.1L160.5 438.6C169 433.6 168.5 438.7 168.5 352V275.5L166.1 271.7C164.9 269.6 162.1 267.1 159.9 266C156.3 264.1 154 264 125.3 264.1C108.4 264.1 93.8 264.4 93 264.7Z" fill="#00AA7E"></path><path d="M348.1 265.7C346.3 266.6 343.6 269.1 342.1 271.4L339.5 275.4V352.4V429.5L341.9 433.3C345.7 439.4 350 441 363 441H374V447.7C373.9 461.5 369.8 471.4 360.1 481C353 488 345.8 492.1 337.2 493.9C333.8 494.6 316.6 495 288.4 495H244.9L242.5 497.5C239.4 500.5 239.2 505.8 241.9 509.1L243.8 511.5H290.2C341.9 511.5 342 511.5 356 504.7C370.9 497.5 383.1 483 388.2 466.7C389.2 463.3 390.4 456.1 390.7 450.8L391.3 441.2L403.4 440.8C414.3 440.5 415.8 440.3 418.9 438.1C420.7 436.8 423.1 433.9 424.1 431.6C425.9 427.7 426 423.5 426 352.5C426 281.5 425.9 277.3 424.1 273.4C423.1 271.1 420.7 268.2 418.9 266.9C415.5 264.5 415.5 264.5 383.5 264.3C355.3 264 351.1 264.2 348.1 265.7Z" fill="#00AA7E"></path></g><defs><clipPath><rect width="508" height="512" fill="white"></rect></clipPath></defs></svg>