<svg xmlns="http://www.w3.org/2000/svg" fill="#00ca96" viewBox="0 0 32 32"><path d="m22.612 16.413c1.382-2.713 2.215-5.61 2.473-8.612.025-.288.286-.502.566-.476.288.025.501.279.477.566-.271 3.136-1.14 6.164-2.584 8.997-2.12 4.159-5.368 7.574-9.304 9.915 1.859 1.212 4.036 1.542 6.214.912 3.302-.954 6.033-3.907 7.494-8.103 2.406-6.907-.482-13.307-2.085-16.086-.185-.32-.645-.323-.836-.007-1.035 1.716-3.201 4.58-7.273 7.357-4.056 2.766-6.655 6.605-6.782 10.019-.077 2.055.727 3.809 2.37 5.227 3.934-2.243 7.175-5.6 9.27-9.709z"></path><path d="m3.595 12.353c-.789 4.167.006 8.141 2.075 10.37 1.193 1.286 2.75 1.952 4.538 1.952.022 0 .046-.004.068-.004-.403 1.203-.924 2.365-1.563 3.466-.385.12-.774.232-1.166.332-.28.072-.449.357-.377.637.06.237.273.394.507.394.043 0 .086-.005.13-.016 1.903-.488 3.718-1.205 5.422-2.111.343-.182.681-.372 1.014-.57-.217-.141-.432-.288-.639-.453-.092-.073-.171-.152-.259-.228-.322.184-.651.358-.982.527-.706.359-1.432.682-2.176.97.383-.761.715-1.546.997-2.348-.884-1.309-1.314-2.804-1.255-4.414.052-1.394.471-2.845 1.198-4.271-.144-1.231-.408-2.456-.792-3.639-.75-2.314-1.918-4.423-3.47-6.269-.189-.221-.16-.552.062-.738.221-.185.552-.158.737.064 1.639 1.95 2.872 4.177 3.665 6.619.271.833.466 1.689.625 2.55.832-1.254 1.902-2.463 3.162-3.57.264-.232.537-.458.818-.681-3.714-7.147-11.857-8.369-12.208-8.417-.186-.025-.376.052-.49.204-.115.152-.137.354-.06.528.015.033 1.49 3.446.419 9.116z"></path></svg>