<svg xmlns="http://www.w3.org/2000/svg" fill="#00ca96" height="24" viewBox="0 0 24 24" width="24"><path clip-rule="evenodd" d="m2.42417 1.57576c-.23432-.23431-.61422-.23431-.84853 0-.23432.23431-.23432.61421 0 .84853l19.99996 20.00001c.2344.2343.6143.2343.8486 0s.2343-.6142 0-.8485zm3.00979 13.10984 3.35164-3.3543 3.8829 3.883-3.35421 3.3516-.00015-.0001-3.88-3.88zm13.37044-5.60244-3.5893 3.58654-3.8849-3.88495 3.5865-3.58932zm2.8854-2.90315-2.0374 2.05401-3.8883-3.88827 2.0457-2.04574c.39-.39 1.02-.39 1.41 0l2.47 2.47001c.39.38999.39 1.01999 0 1.40999zm-16.9379 9.52049 3.54746 3.5475-6.29948 2.752z" fill-rule="evenodd"></path></svg>