<?xml version="1.0" encoding="utf-8"?><!-- Uploaded to: SVG Repo, www.svgrepo.com, Generator: SVG Repo Mixer Tools -->
<svg width="800px" height="800px" viewBox="0 0 24 24" fill="none" xmlns="http://www.w3.org/2000/svg">
<path fill-rule="evenodd" clip-rule="evenodd" d="M12.5534 3.39388C12.1942 3.27414 11.8058 3.27414 11.4466 3.39388L6.15626 5.15732C5.70569 5.30752 5.33909 5.64035 5.14619 6.07436C2.83966 11.2641 5.0231 17.3501 10.1027 19.8899L11.4215 20.5493C11.7857 20.7313 12.2143 20.7313 12.5785 20.5493L13.8973 19.8899C18.9769 17.3501 21.1603 11.2641 18.8538 6.07436C18.6609 5.64035 18.2943 5.30752 17.8437 5.15732L12.5534 3.39388ZM16.0083 10.0515C16.3129 9.77077 16.3322 9.29629 16.0515 8.9917C15.7708 8.68712 15.2963 8.66777 14.9917 8.94849L11.1317 12.506L9.51928 10.9588C9.2204 10.672 8.74563 10.6818 8.45884 10.9807C8.17205 11.2796 8.18185 11.7544 8.48073 12.0411L10.602 14.0767C10.888 14.3511 11.3382 14.3556 11.6296 14.087L16.0083 10.0515Z" fill="#000000"/>
</svg>